<svg xmlns="http://www.w3.org/2000/svg" width="45" height="44" fill="none"><path fill="#CFC9C2" d="M22.396 39.688a17.809 17.809 0 0 1-11.232-3.995 17.657 17.657 0 0 1-6.158-10.167 17.597 17.597 0 0 1 1.696-11.752 17.724 17.724 0 0 1 8.785-8.03 17.834 17.834 0 0 1 13.568-.068 17.715 17.715 0 0 1 9.655 9.488 17.593 17.593 0 0 1 .103 13.503 17.712 17.712 0 0 1-9.507 9.633 17.717 17.717 0 0 1-6.91 1.388Z"/><path stroke="#CFC9C2" stroke-width="1.673" d="M22.402 43.09H22.4A21.245 21.245 0 0 1 9 38.324a21.058 21.058 0 0 1-7.345-12.126A20.983 20.983 0 0 1 3.68 12.185a21.14 21.14 0 0 1 10.478-9.578 21.277 21.277 0 0 1 16.185-.08 21.13 21.13 0 0 1 11.516 11.317 20.98 20.98 0 0 1 .124 16.101 21.125 21.125 0 0 1-11.34 11.49 21.131 21.131 0 0 1-8.24 1.655Z"/><path stroke="#383432" stroke-miterlimit="10" stroke-width="1.109" d="M15.654 16.328H26.64c.758 0 1.485.3 2.022.834a2.84 2.84 0 0 1 0 4.025 2.867 2.867 0 0 1-2.022.833H15.654v-5.692ZM15.654 22.022H27.46c.758 0 1.486.3 2.022.834a2.836 2.836 0 0 1 0 4.026 2.863 2.863 0 0 1-2.022.833H15.654v-5.693Z"/><path stroke="#383432" stroke-linejoin="round" stroke-width="1.109" d="M20.044 14.103v-3.182M24.867 14.103v-3.182M20.044 33.122v-3.134M24.867 33.122v-3.134"/></svg>