<svg xmlns="http://www.w3.org/2000/svg" width="201" height="21" fill="none"><path fill="#0D0C0C" d="M63.767 12.871c.68 0 1.203-.466 1.203-1.165 0-.698-.524-1.184-1.203-1.184-.68 0-1.184.486-1.184 1.184 0 .7.504 1.165 1.184 1.165Zm0 7.28c.68 0 1.203-.467 1.203-1.166 0-.698-.524-1.184-1.203-1.184-.68 0-1.184.486-1.184 1.184 0 .7.504 1.165 1.184 1.165ZM81.878 6.33c-2.97 0-4.814 2.465-4.814 6.6v.62c0 4.135 1.844 6.6 4.814 6.6 2.97 0 4.814-2.465 4.814-6.6v-.62c0-4.135-1.844-6.6-4.814-6.6Zm-3.203 6.658c0-3.3 1.184-5.203 3.203-5.203 1.106 0 1.96.563 2.504 1.63l-5.532 6.096a10.423 10.423 0 0 1-.175-2.019v-.505Zm6.406.504c0 3.3-1.184 5.183-3.203 5.183-1.087 0-1.941-.563-2.504-1.592l5.532-6.134c.116.602.175 1.281.175 2.039v.504ZM97.156 10.134c-1.883 0-2.776.893-3.223 1.67l-.058-1.67h-3.727v1.456h2.213v6.988h-2.213v1.456h6.697v-1.456h-2.892v-3.552c0-1.573.68-3.339 2.99-3.339h1.28v-1.553h-1.067ZM109.255 11.648c-.602-.951-1.728-1.63-3.397-1.63-2.737 0-4.756 2.038-4.756 5.066 0 3.222 2.019 5.066 4.756 5.066 1.669 0 2.737-.796 3.397-1.708l.214 1.592h1.378V6.446h-1.592v5.202Zm-3.242 7.085c-1.96 0-3.28-1.495-3.28-3.65 0-2.154 1.32-3.648 3.28-3.648 1.941 0 3.261 1.514 3.261 3.688 0 2.115-1.32 3.61-3.261 3.61ZM119.791 6.446H118.2v1.63c0 .66-.311 1.165-.913 1.165h-2.639v1.456h2.814c.291 0 .524-.058.718-.194v8.017h-3.571v1.514h8.618V18.52h-3.436V6.446ZM131.523 10.018c-1.572 0-2.562.698-3.144 1.455l-.214-1.339h-1.378v9.9h1.592V14.89c0-2.116 1.125-3.417 2.872-3.417 1.631 0 2.563 1.03 2.563 2.95v5.61h1.591v-5.706c0-3.145-1.747-4.31-3.882-4.31ZM148.328 18.578c-.447 0-.641-.136-.641-.66v-4.329c0-2.31-1.456-3.571-3.979-3.571-2.388 0-3.96 1.145-4.193 3.086h1.592c.194-1.01 1.126-1.67 2.523-1.67 1.553 0 2.465.777 2.465 2.058v.68h-2.911c-2.601 0-3.979 1.106-3.979 3.086 0 1.805 1.475 2.892 3.649 2.892 1.708 0 2.698-.757 3.319-1.65.02.97.466 1.534 1.786 1.534h.873v-1.456h-.504Zm-2.233-2.582c0 1.65-1.145 2.795-3.125 2.795-1.32 0-2.154-.66-2.154-1.63 0-1.126.796-1.65 2.213-1.65h3.066v.485ZM156.19 18.578V6.446h-4.581v1.456h2.989v10.676h-2.989v1.456h7.589v-1.456h-3.008ZM166.284 20.15c2.194 0 3.96-1.145 3.96-2.99 0-2.193-1.805-2.62-4.057-2.891-1.436-.175-2.484-.31-2.484-1.398 0-.912.932-1.495 2.31-1.495 1.358 0 2.29.757 2.407 1.767h1.63c-.155-2.058-1.786-3.125-4.037-3.125-2.233 0-3.882 1.164-3.882 2.97 0 2.057 1.766 2.504 3.979 2.775 1.475.175 2.562.272 2.562 1.514 0 .913-.99 1.514-2.388 1.514-1.649 0-2.678-.854-2.736-2.018h-1.631c.039 2.174 1.805 3.377 4.367 3.377ZM0 20.044 4.619 6.367h1.758L1.76 20.044H0ZM27.82 18.58v1.457h-7.6V18.58h2.993v-6.998H20.22v-1.458h4.587v8.456h3.013ZM22.805 7.168c0-.681.544-1.206 1.225-1.206.68 0 1.205.525 1.205 1.206 0 .719-.524 1.224-1.205 1.224-.68 0-1.225-.505-1.225-1.224ZM38.871 10.123v1.555h-1.283c-2.314 0-2.993 1.77-2.993 3.343v3.557h3.343v1.458h-7.154v-1.458H33v-6.997h-2.216v-1.458h3.732l.058 1.672c.447-.777 1.341-1.672 3.228-1.672h1.069ZM41.33 15.08c0-3.013 2.022-5.074 4.919-5.074s4.918 2.06 4.918 5.074-2.021 5.074-4.918 5.074c-2.897 0-4.918-2.06-4.918-5.074Zm8.204 0c0-2.118-1.321-3.655-3.285-3.655-1.964 0-3.285 1.536-3.285 3.655 0 2.12 1.321 3.655 3.285 3.655 1.964 0 3.285-1.536 3.285-3.655ZM11.48 20.044l4.618-13.677h1.76l-4.62 13.677H11.48ZM11.54 12.477H6.813l-.493 1.458h4.729l.493-1.458Z"/><path fill="#8C877D" d="M178.636 13c1.69 0 2.53-.76 2.53-2 0-1.01-.67-1.49-1.43-1.63.68-.23 1.13-.73 1.13-1.52 0-1.13-.79-1.85-2.3-1.85h-2.3v7h2.37Zm-1.5-6.21h1.47c.93 0 1.39.42 1.39 1.12 0 .71-.47 1.13-1.39 1.13h-1.47V6.79Zm0 3.03h1.5c1.06 0 1.64.43 1.64 1.22 0 .72-.53 1.17-1.64 1.17h-1.5V9.82Zm9.029-.46c.63-.18 1.09-.69 1.09-1.55 0-1.12-.87-1.87-2.27-1.87-1.29 0-2.25.8-2.27 2.08h.83c.01-.8.64-1.33 1.45-1.33.8 0 1.4.44 1.4 1.15s-.48 1.22-1.47 1.22h-.52v.75h.61c1.04 0 1.51.46 1.51 1.19 0 .8-.61 1.31-1.48 1.31-.95 0-1.59-.55-1.6-1.47h-.83c0 1.39.91 2.22 2.38 2.22 1.48 0 2.39-.81 2.39-2 0-1.07-.61-1.58-1.22-1.7Zm5.689 3.64V6.8h2.27V6h-5.41v.8h2.27V13h.87Zm3.178 0 .68-1.89h2.87l.67 1.89h.93l-2.49-7h-1.07l-2.48 7h.89Zm2.1-6.05 1.19 3.37h-2.36l1.17-3.37Z"/></svg>