<?xml version="1.0" standalone="no"?>
<!DOCTYPE svg PUBLIC "-//W3C//DTD SVG 20010904//EN"
 "http://www.w3.org/TR/2001/REC-SVG-20010904/DTD/svg10.dtd">
<svg version="1.0" xmlns="http://www.w3.org/2000/svg"
 width="700.000000pt" height="700.000000pt" viewBox="0 0 700.000000 700.000000"
 preserveAspectRatio="xMidYMid meet">
<g transform="translate(0.000000,700.000000) scale(0.100000,-0.100000)"
fill="#000000" stroke="none">
<path d="M3314 6679 c-1022 -47 -1975 -605 -2531 -1482 -255 -403 -411 -851
-475 -1362 -18 -151 -15 -571 6 -730 80 -608 290 -1116 660 -1595 103 -133
379 -412 515 -519 712 -564 1594 -797 2498 -660 839 126 1615 606 2109 1304
150 211 302 499 394 748 86 233 153 526 181 792 16 162 14 505 -6 670 -44 385
-142 718 -310 1060 -315 638 -812 1136 -1450 1450 -501 246 -1012 351 -1591
324z m417 -1315 c231 -40 418 -135 590 -301 244 -235 395 -574 466 -1048 26
-176 26 -854 0 -1030 -41 -273 -97 -465 -192 -660 -78 -161 -162 -280 -274
-388 -227 -219 -481 -317 -821 -317 -354 0 -626 112 -856 352 -224 233 -364
562 -431 1013 -15 100 -18 187 -18 515 0 426 6 502 61 748 138 621 503 1024
1010 1116 111 20 348 20 465 0z"/>
<path d="M3382 4980 c-82 -12 -187 -49 -252 -89 -250 -152 -401 -434 -476
-886 -21 -131 -31 -702 -15 -872 14 -148 31 -245 41 -241 14 5 1500 1647 1500
1657 0 5 -27 50 -60 100 -171 255 -437 375 -738 331z"/>
<path d="M3571 3288 c-413 -458 -751 -836 -751 -840 0 -3 21 -38 48 -77 101
-152 241 -263 397 -317 73 -26 92 -28 230 -29 130 0 160 3 225 23 206 64 363
209 475 437 86 177 131 345 160 605 22 189 16 756 -9 919 -9 57 -18 106 -20
108 -2 2 -342 -371 -755 -829z"/>
</g>
</svg>
